# xmcd CD database file
#
# Track frame offsets:
#	150
#	65854
#	97870
#	158116
#
# Disc length: 2350 seconds
#
# Revision: 0
# Processed by: cddbd v1.5.1PL2 Copyright (c) Steve Scherf et al.
# Submitted via: CDex 1.51
#
DISCID=2c092c04
DTITLE=Pat Metheny - 80/81 [Disc 2]
DYEAR=1980
DGENRE=Jazz
TTITLE0=Open
TTITLE1=Pretty Scattered
TTITLE2=Every Day (I Thank You)
TTITLE3=Goin' Ahead
EXTD=YEAR: 1980
EXTT0=
EXTT1=
EXTT2=
EXTT3=
PLAYORDER=
